<?xml version="1.0" encoding="UTF-8" standalone="no"?>
<!-- Created with Inkscape (http://www.inkscape.org/) -->

<svg
   width="842.82"
   height="200"
   version="1.1"
   viewBox="0 0 842.81 200"
   xml:space="preserve"
   id="svg38132"
   sodipodi:docname="illegal_baker_words.svg"
   inkscape:version="1.1.1 (3bf5ae0d25, 2021-09-20)"
   xmlns:inkscape="http://www.inkscape.org/namespaces/inkscape"
   xmlns:sodipodi="http://sodipodi.sourceforge.net/DTD/sodipodi-0.dtd"
   xmlns="http://www.w3.org/2000/svg"
   xmlns:svg="http://www.w3.org/2000/svg"><defs
     id="defs38136" /><sodipodi:namedview
     id="namedview38134"
     pagecolor="#ffffff"
     bordercolor="#666666"
     borderopacity="1.0"
     inkscape:pageshadow="2"
     inkscape:pageopacity="0.0"
     inkscape:pagecheckerboard="0"
     showgrid="false"
     inkscape:zoom="1.521084"
     inkscape:cx="291.56839"
     inkscape:cy="99.928737"
     inkscape:window-width="1920"
     inkscape:window-height="1011"
     inkscape:window-x="0"
     inkscape:window-y="32"
     inkscape:window-maximized="1"
     inkscape:current-layer="svg38132" /><g
     transform="matrix(1.3333 0 0 -1.3333 -29.7 410.64)"
     id="g38130"
     style="stroke:#000000;stroke-opacity:1;stroke-width:1.67479187;stroke-miterlimit:4;stroke-dasharray:none"><g
       transform="matrix(.048705 0 0 .048705 11.426 157.98)"
       fill="#f1f1f1"
       id="g38128"
       style="stroke:#000000;stroke-opacity:1;stroke-width:34.38644636;stroke-miterlimit:4;stroke-dasharray:none"><path
         d="m5497.4 2072.9c-1.1 0.1-2.2 0.1-3.29 0-20.07-0.6-36.28-18.6-50.43-30.9-15.88-13.9-31.15-28.4-45.75-43.7-29.19-30.4-55.7-63.4-79.13-98.5-21.4-32-38.74-65.6-55.83-100-17.73-35.8-36.99-71.1-54.88-106.9-19.61-39.2-34.59-74.7-52.89-114.6-0.87-4-5.51-17.1 4.47-10.5 35.27 28.3 74.31 52.9 104.94 85.5 49.04 52.2 94.83 108 137.65 165.4 39.16 52.6 77.56 106.2 96.74 171 5.29 17.9 28.07 65.6 7.63 80.1-2.69 1.9-5.93 2.8-9.23 3.1zm-1370.8-276.4c-2.18-8.8-18.93-36.6 9.98-6.3 59.98 82.4 129.35 157.4 193 237 131.68 164.7 238.75 349 316.55 545 7.17 18 14.12 36.3 17.38 55.4 0.9 5.3 1.49 11-0.46 16-3.47 8.9-14.22 13.2-23.76 12.3-53.62-5-96.29-75.6-123.19-115.5-48.86-72.4-92.42-148.2-134.07-225-42.28-77.9-82.69-156.9-121.73-236.5-39.46-80.4-77.75-161.4-115.41-242.7-6.11-13.2-12.2-26.4-18.29-39.7zm1266.5 849.9c-3.09 17.5-10.13 33.6-22.81 46.7-4.45 4.6-9.96 8.8-16.35 9.1-6.33 0.3-12.12-3.3-17.36-6.9-97.05-66.3-160.16-170.5-231.33-261.5-56.57-72.4-107.66-149.1-158.89-225.5-48.56-72.3-96.66-145.2-140.49-220.4-64.63-110.9-115.32-228.8-161.5-348.4-13.52-35.1-22.79-71.7-34.92-110.6 189.1 204.2 371.74 413.2 542.79 633 93.4 119.9 185.32 245.4 230.56 390.6 9.3 29.8 15.61 63.9 10.3 93.9zm349.68-1725.4c-0.06 4 3.56 10.801-6.41 5.102-29.81-14.2-60.58-26.7-89.24-42.903-64.97-36.801-127.92-77.199-193.52-112.8-153.48-83.203-302.57-212.1-368.68-377.2-20.18-50.398-32.67-105.4-23.94-159 16.57-101.7 115.92-174.6 217.31-140.7 67.45 22.602 117.78 79 158.54 137.2 117.24 167.7 188.29 367.7 259.95 557.9 16.47 43.699 30.74 88.199 45.99 132.4zm235.43 133.7c39.74 9 78 22.3 118.8 27 44.28 5 89.04 3.9 133.44 1.2 55.66-3.4 113.28-9.8 161.04-38.6 12.7-7.7 46.75-22.1 38.94-41.5-2.06-5.101-6.06-9.198-10.08-12.999-28.41-26.602-88.77-67-128.31-40.102-12.83 8.699-18.57 24.602-28.81 36.199-14.45 16.502-36.75 23.402-58.18 27.902-74.46 15.7-153.56 10.7-226.27-11.2-18.58-5.6-28.16-17.6-35.11-35.401-30.8-79-60.77-158.4-95.22-235.7-62.41-140.1-137.66-284.9-230.99-407-76.46-100.1-171.93-185.6-279.79-250.6-56.83-34.203-118.3-63.199-184.07-71.801-94.3-12.301-218.83 28.5-237.42 135.5-4.61 26.5-0.29 53.8 5.77 80.097 26.86 116.5 88.32 222.1 173.96 305.1 101.75 98.699 212.01 185.8 335.28 256.2 67.12 38.301 133.27 78.301 200.74 116 32.59 18.199 67.12 33 100.96 49 15.48 7.301 24.51 18.398 31.28 34.699 40.03 96.401 82.05 192.1 122.28 288.5 17 40.7 31.25 82.6 46.75 123.9 3 8.6-1.3 15.6-8.58 6.1-9.11-11-18.36-21.9-27.3-33-72.15-90.1-166.35-163.5-271.48-211-34.59-15.7-72.38-28.8-109.9-23-86.45 13.5-75.95 98.6-73.62 163.9 0.25 7-0.17 14-0.4 28.6-91.13-106.5-176.39-210.8-296.39-286.9-36.36-23-74.98-43.8-116.99-53.198-86.26-19.403-150.94 16.898-174.55 101.9-6.63 23.9-11.41 48.3-18.3 78-10.82-9.3-18.59-14.6-24.69-21.4-107.66-120.2-211.6-241.9-382.88-259-80.95-8.102-111.75 64.296-129.39 131.7-6.47 24.7-9.3 50.4-14.85 81.7-12.52-8.7-22.39-13.4-29.44-20.8-71.32-75.001-165.9-154.9-256.9-204.7-71.85-39.301-171.95-62.199-248-20.301-73.9 40.703-88.46 131.2-100.18 207.1-2.41 15.5-3.49 31.3-6.24 57-25.18-27.9-44.94-47.5-62.21-69.2-27.17-34.2-53.9-68.799-78.52-104.8-24.44-35.699-48.32-72.199-68.37-110.7-19.29-36.801-78.9-75.704-122.03-52.102-50.5 27.602 22.11 106.2 47.34 137.5 50.09 62.102 103.85 121.4 157.5 180.4 52.61 57.9 107.95 114.1 150.83 179.9 53.15 81.6 94.29 167.2 126.73 258.8 27.88 78.7 67.7 155.2 103.78 230.5 74.95 156.4 156.98 309.4 245.74 458.4 80.86 135.8 168.63 269.7 285.1 376.5 100.68 92.2 229.07 191.8 339.01 193.5 62.57 1 42.92-58 33.63-89.6-21.63-73.6-38.51-148.4-73.65-218.3-46.03-91.6-91.47-183.5-150.6-267.1-50.44-71.3-105.75-139.3-161.74-206.5-78.36-93.9-159.56-185.5-239.16-278.4-37.96-44.3-75.2-89.2-112.35-134.2-7.89-9.5-15.82-19.8-20.55-31.1-67.88-161.4-127.05-319-114.35-497.6 2.68-37.8 14.48-83.2 51.02-93.302 32.02-8.796 62.85 15.403 87.24 38.002 51.31 47.4 102.63 94.9 153.94 142.3 44.46 41.1 96.87 76.1 104.37 140.8 3.43 29.5 12.48 58.5 19.86 87.5 107.14 421.3 373.44 754.2 633.92 1091.5 53.27 69 105.61 134.6 180.16 181.2 78.23 48.9 162.99 87.3 251.33 113.8 26.59 8 57.05 14.5 80.72 0 17.22-10.6 26.82-30.2 32.2-49.6 21.09-76.4-10.05-157.1-47.69-226.9-60.92-112.9-139.87-214.9-218.45-316.3-170.52-220.1-341.76-441-541.21-635.3-47.18-45.9-96.79-91.5-127.44-149.8-51.97-98.8-68.79-273.4-12.47-373.6 2.87-5.1 6.92-10.7 12.78-10.8 4.76-0.1 8.68 3.5 12.02 6.9 86.67 87.9 182.55 181.4 254.22 282 25.62 36 43.17 76.9 60.86 117.3 137.3 313.7 337.65 659 677.93 783 11.57 4.2 23.76 8.1 35.97 6.5 27.46-3.5 44.08-33 48.15-60.4 9.32-62.7-23.25-123.4-57.69-176.7-62.56-96.6-135.24-186.7-216.37-268.4-72.93-73.5-150.43-159.8-261.19-161.5-32.61-1.6-58.61-147.2-61.37-171.6-7.83-69.6 3.48-141.3 33.29-204.6 4.88-10.4 11.05-21.3 21.67-25.6 17.14-6.8 35.1 6.8 48.47 19.5 62.37 59.4 123.1 120.5 182.09 183.3 47.55 50.5 91.02 120.3 155.5 150.3 6.86 3.1 11.46 12.8 15.51 20.2 85.05 157.4 188.44 302.9 292.89 447.4 60.74 84.1 122.89 163 208.15 223.6 82.09 58.4 175.01 100.1 270.21 131.9 25.16 8.4 52.17 16.3 77.83 9.5 22.63-5.9 41.83-23.6 49.59-45.6 6.45-18.3 5.23-38.4 2.82-57.6-13.09-104.5-67.91-198.8-117.31-290.2-16.48-30.4-32.96-60.9-50.7-90.7-7.38-12.4-15.17-24.8-26.16-34.2-26.59-22.5-84.16-27.6-110.2-2.9-8.51 8.1 20.03 67.4 25.39 77.1 15.48 28.1 31.18 56 45.29 84.8 27.25 55.6 49.74 114.2 57.55 176 3.56 28.2 2.85 60.1-16.75 80.6-3.05 3.2-6.68 6.2-11.02 7-5.22 1.1-10.54-0.9-15.43-3.1-65.12-28.2-108.38-75.7-150.35-130.9-69.08-90.9-132.03-186.8-196.17-281.2-65.11-95.8-128.04-193.6-178.99-297.8-30.18-61.7-56.6-128.9-49.56-197.2 2.66-26 16.28-56.6 42.32-57.7 17.34-0.7 31.76 12.5 44.03 24.8 39.04 39.1 77.67 78.6 117.45 117 22.11 21.3 81.11 97.6 115.68 87.1 2.08-0.6 4.35-1.5 6.33-0.6 1.67 0.8 2.58 2.6 3.37 4.2 30.25 64.1 53.47 137.6 106.86 187 42.62 39.4 100.76 56.8 153.71 77.6 10.8 4.2 23.06 4.7 38.24 7.7-98.97-237.3-195.71-469.2-295.45-708.3"
         id="path38112"
         style="stroke:#000000;stroke-opacity:1;stroke-width:34.38644636;stroke-miterlimit:4;stroke-dasharray:none" /><path
         d="m12044 1799.7c21.6 10.2 39.1 24.7 57.5 40.2 57.9 48.7 115.9 97.6 168 152.6 47.9 50.8 101.7 107.4 119 177.2 9.4 38.5 5.1 82-19.3 113.2-13.6 17.4-36 30.8-57.3 25-9.9-2.6-18.2-8.9-25.9-15.6-72.1-62.8-125.7-158-164.9-243.9-18.9-41.2-34.8-83.7-47.8-127.1-6.6-22.2-12.4-44.7-17.5-67.3-1.8-7.9-4.4-50.9-11.8-54.3zm-402.1 481.1c-1.1 1.7-2.4 3.2-3.8 4.7-13 13.1-35 13.1-51.6 5-31.8-15.4-58.3-53.8-81.8-79.3-28.9-31.5-57.1-63.7-83.9-97.1-36.1-45-67.8-94.5-99.1-143.8-40.4-63.5-78.4-128.7-117.4-193.2-2.3-5.7-12-16.7 3.9-7.3 19.5 9.7 39.3 18.7 58.4 29.3 28.4 15.8 54.4 29.9 90.3 21.4 41-9.7 81.1 5.3 114.3 35 51.7 46.2 95.5 99.3 131.5 161.5 42.4 73.2 68.3 153.8 49 238.6-2 8.9-4.6 17.9-9.8 25.2zm-1618-1010.3c15-2.2 33.8 9.6 52.1 36.2 126 182.9 285 337.7 435 500.4 14 15.2 23.5 33.9 21.1 57.9-1.5 14.5-2 30.2 1.6 44 15.6 59.5 0 114.7-20.1 168.8-9.8 26.4-33 34.2-55.8 19.4-28.6-18.6-58-37.1-82.7-61-43-41.6-83.4-86.5-123.6-131.5-23-25.8-43.5-54.3-64.9-81.9-39.8-51.2-78-103.9-104.5-165-20.4-47.2-40.4-94.8-57.6-143.4-21.1-59.2-32.34-121-30.48-185.1 1.06-36.4 13.08-56.4 29.88-58.8zm2837.5 1001.8c-100.2-163.9-193.6-325.6-313.9-477.1-83.1-104.7-168-208-254.7-309.8-54.6-64-110.4-128-177.4-178.9-64-48.6-262.7-164.2-304.6-35.3-13.1 40.4-10.9 62.9-11.7 105-0.3 15.8 4.9 55.3 11.1 85.1-24.3-21.2-62.6-50.1-82-65.4-78.3-61.7-153.9-118.6-249.6-151-61.5-20.9-133.6-31.1-188.2 4.1-35.4 22.9-57.6 61.3-74.2 100-42.1 97.5-43.3 194.2-52.7 297.7-1 11.7 2.7 48.2-0.4 67.8-9.3-11.5-22-41.7-25.2-48.8-52.7-115.9-111.7-228-166.6-343-9.4-19.5-18.7-39.4-32.9-55.8-33.7-38.9-94.7-42.7-136.4-14.5 14.2 39.2 27.5 80.4 43.7 120.1 34.9 86.1 70.8 171.6 107.2 256.9 22.8 53.7 47.6 106.5 70.7 160 19.4 44.9 37.7 90.3 56 135.8 5.9 14.4 15.1 32.3 15.6 47.8-20.2-19.6-35.9-52.1-49.7-76.7-46-81.9-94.1-172.7-136.8-256.5-42.3-82.9-75.4-122.6-140.8-233.6-42.4-71.8-99.6-124.6-163.7-177.5-59-48.8-127.7-90.2-206.6-90.3-24 0-49.5 4.1-67.5 20-29.9 26.6-26.9 73.6-19.6 113 22.2 119 67.2 229.8 107.5 343.3 0.7 1.8-0.8 4.6-2 10.5-123.9-138.3-228-303.1-363.6-429.4-53.05-49.4-173.76-129-218.74-28.8-11.37 25.4-12.82 54-12.06 81.8 5.68 205.7 121.19 391.4 246.2 555 130.6 170.9 289.2 342.6 504.3 400 18.5 4.9 38.1 9 56.5 3.7 32.4-9.4 50.3-44.7 55.6-78.1 5-30.8-5.6-101.8 23.4-108.2 17-3.7 59.3 43.1 67.8 2.8 5.8-27.4-62.8-116.6-76.8-142.8-53.3-99.6-104.2-200.6-147.5-305-29-70.1-54.9-142.8-60.4-218.6-2.2-30.4 0.2-64.2 21.3-86.2 61.4-64.2 161 96.8 186.5 136.1 58.3 89.7 114.4 180.9 168.2 273.3 53.5 91.9 104.7 185 153.6 279.3 66.8 128.9 134.1 258.5 206.3 385 74.1 129.7 150.9 258 218.3 391.3 17.5 34.7 32.7 70.4 50 105.1 2.9 5.7 6.6 13.1 11.6 15.1 46.2 18.9 92.6 37 139.1 54.9 4.4 1.7 9.7 0.6 21.5 1.1-50.3-130.1-105.8-258.2-161.1-386.2-27.3-63.4-54.7-126.7-81.4-190.4-13.4-31.8-26.6-63.6-39.5-95.6-5.3-13.1-10.4-26.3-15.3-39.6-4-10.8-9.1-41.4-17.5-48.5 107.7 90.8 198.3 200.7 343.5 231.9 26.4 5.6 55.1 8.1 79.6-3.3 28.7-13.5 46.3-44.1 52.3-75.3 18.1-95.2-29.1-189.5-85.6-262.5-86.8-112-201.1-197.8-329.5-257.2-14.2-6.5-29.7-13.8-36.3-27.9-4.8-10.1-4-21.8-3.2-32.9 7.9-103.4 16.4-209.4 60.4-303.3 11.6-24.7 25.9-48.8 46.6-66.6 20.7-17.7 48.7-28.6 75.5-23.8 21.4 3.9 39.8 16.9 57.1 30 33.4 25.5 65.5 52.7 97.5 80 31.4 26.7 62.7 53.4 94.1 80.2 6.7 5.6 13.5 11.5 18.1 18.9 5 8 7.1 17.5 9.2 26.7 37.7 169 79.8 339.8 165 490.6s220 281.5 387.7 324.5c46.4 11.8 97.1 18.2 134-18.3 35.6-35 41.8-89.2 26.3-135.1-15.6-45.8-48.4-83.4-80.8-119.3-67.2-74.4-136.3-147.4-212-213.3-38.5-33.5-78.6-65.2-120.7-93.9-27.4-18.6-95.4-39.2-104.6-73.9-27.7-103.6-51.9-235.7-25.6-342.2 6.2-24.8 27-49.4 52.4-46.5 17.2 1.9 30.3 15.5 42 28.2 237.6 260.3 454.8 535.3 656.4 824.4 26.7 38.3 55.4 75 82.8 111.8-10.4 19.3-21.8 38.2-31.2 58.3-58.5 125 87.1 213.2 168.8 280.3 32.1 26.4 65 52.4 102.6 70.1 18.5 8.7 159.4 44.1 119.2-14.9-7.5-11-25.8-10.3-37-15-37.5-15.7-76.3-40-105-68.6-31.8-31.7-53.5-76.8-46-121 4.5-26.6 18.9-50.4 34.5-72.4 30.8-43.8 67.2-83.6 95.6-129s48.9-98.4 42.9-151.6c-5.1-45.9-29-87.2-52.4-126.9-51.2-57.7-86.1-146.4-125.3-213-39.8-67.7-79.3-134.6-114.2-204.7-66.7-134-122.7-275.1-140.7-424.8-4.7-39-6.4-78.4-3-117.6 5.2-61.002 24.1-123.5 67.7-166.4 30.1-29.602 72.6-41 105.3-9 11.8 11.602 20.5 25.898 29.1 40 33.1 54.5 66.1 108.9 99.2 163.4 31.7 52.1 60.7 107.9 97.5 156.7 5.2 6.9 11.2 13.9 19.6 16.1 22.6 5.8 21.9-23.1 18.6-36.5-35.7-141.1-117.3-268.6-225.2-365.5-76.9-69.097-203-164.5-301.8-78-44.4 38.801-66.3 99.199-76.3 155.8-3.7 20.801-5.9 42-6.2 63.199-1.8 122.7 23.5 244.6 59.7 361.9 48.5 157.4 116.4 308 190.4 454.9 67.5 134.2 179.6 269.7 75.9 416.3-9.8 13.8-20.6 26.8-35.4 46"
         id="path38114"
         style="stroke:#000000;stroke-opacity:1;stroke-width:34.38644636;stroke-miterlimit:4;stroke-dasharray:none" /><path
         d="m2233.6 1630.9c11.33 6.5 21.57 10.4 29.22 17.1 59.46 52.7 119.94 104.3 176.91 159.5 30.68 29.7 59.22 63.5 81.09 100 19.99 33.4 41.07 68.7 42.83 110.1 1.33 31.5-14.03 45.2-43.13 34.7-29.35-10.6-58.16-23.7-80.47-47.3-8.85-9.3-19.06-17.3-28.01-26.6-28.26-29.2-61.62-55.2-83.18-88.7-48.67-75.8-79.33-160-98.02-248.3-0.42-2-4.91-13.1 2.76-10.5zm-770.36-113.3c147.86 189.9 258.44 456.6 469.8 585 36.94 22.4 84.37 39.8 122.07 18.7 27.99-15.7 42.13-49.3 42.73-81.4 0.59-32.1-10.18-63.2-21.58-93.2-88.34-232.3-223.03-445.6-300.5-681.8-21.04-64.1-57.5-203.2-5.28-196.7 55.3 38.7 92.09 104.8 135.78 159.2 60.07 74.8 80.13 163.8 103.55 255.4 34.28 133.9 80.72 267.8 171.37 374.2 84.52 99.2 187.31 182.7 301.54 245.4 53.88 29.5 140.27 85.7 204.56 73 59.62-11.7 42.65-98.1 27.19-136.6-23.26-58-62.57-108.1-103.8-155-57.21-65.2-119.16-126.2-185.17-182.5-34.11-29-69.3-56.8-105.48-83.2-16.94-12.4-34.17-27-52.73-36.9-17.34-9.1-35.88-13.2-49.63-28.9-11.13-12.7-15.79-29.7-19.37-46.2-12.61-58.1-14.5-120-9.97-179.3 2.97-38.8 13.21-78.6 38.3-108.5 25.08-29.8 67.48-47.3 104.41-34.8 21.61 7.3 38.86 23.5 55.22 39.4 137.18 133.3 258.38 278.4 376.05 428.8 1.5 1.9 3.25 4 5.66 4.4 1.87 0.2 3.71-0.6 5.33-1.6 8.5-5.1 14.45-14.3 15.7-24.1 1.28-10.2-2.22-20.3-6.5-29.6-18.7-40.8-52.35-73-79.5-108.1-30.74-39.8-62-79.1-94.48-117.4-80.65-95.2-169.35-184.8-272.85-255.2-55.18-37.6-116.6-70.1-183.18-74.7-87.85-6-188.58 54.1-191.43 149.9-50.01-71.8-109.93-136.8-177.53-192.4-30.14-24.798-62.73-48.201-100.36-58.498-53.93-14.902-116.35 2.598-130.05 62.098-8.02 34.8-0.1 71.2 9.26 105.7 77.62 285.9 249.45 534.5 338.07 816.5 4.22 13.4 12.61 47.9-0.12 49.5-8.77 2.6-16.21-9-19.62-13.8-116.71-162.4-232.58-325.6-337.54-496-53.19-86.3-103.57-174.4-149.73-264.8-37.88-74.1-59.37-171.9-133.37-218.9-48.48-30.801-110.85-38.699-165.46-20.898 143.86 400.9 318.2 790.9 521.02 1165.4 58.54 108.1 119.88 215.6 198.22 310.3 78.34 94.8 175.02 177 289.02 223 22.2 9 46.3 16.6 69.78 11.9 23.47-4.7 45.16-26.1 42.18-49.8-1.23-9.8-6.34-18.7-12.67-26.2-29.65-35.4-77.72-40.6-118.6-55.2-47.42-16.9-80.86-53.9-111.82-92.1-120.14-148.4-217.82-312.1-311.96-477.8-28.1-49.6-50.63-102.3-74.64-154.1-40.68-87.8-80.71-175.9-120.51-264-4.65-10.3-6.15-22-9.11-33.1-1.65-7.6-3.44-17.4 7.73-4.5"
         id="path38116"
         style="stroke:#000000;stroke-opacity:1;stroke-width:34.38644636;stroke-miterlimit:4;stroke-dasharray:none" /><path
         d="m9414.5 1993.7c-1.54-0.7-3.07-1.5-4.61-2.2 157.16-18.5 285.87-154.5 320.58-308.9 64.97-288.9-144.08-543.3-366.33-696.7-316.96-218.8-711.97-313.4-1096.4-290.9-129.66 7.602-272.75 36.199-349.16 141.2-60.01 82.5-61.5 203.1-3.54 287-7.88-87.1 21.13-177 78.46-243.1 36.46-42 88.33-75.801 143.85-72.403 82.16 5 126.7 84.5 164.8 157.5 107.8 206.4 154.71 426.4 244.88 641.1s204.88 427 357.18 603.2c152.31 176.2 389.07 315.4 619.55 348.8 34.82 5 82.35-1.4 87.23-36.2 5.53-39.6-48.62-55.1-88.27-59.8-153.64-18.3-292.06-106.7-399.29-218.2-94.23-98-167.45-213.5-237.12-329.5-73.26-122.1-127.79-254.8-183.04-385.7-8.17-19.3-16.32-38.7-24.49-58-75.87-179.5-149.91-382.3-280.83-530.1-19.67-22.199-94.31-137.3-203.89-172.7 39.63-10.102 48.18-10.602 70.71-15 129.48-25.301 260.18-14.301 390.55 2.3 133.57 16.899 266.39 47.5 389.33 103.4 89.01 40.601 171.99 94.199 245.7 158.5 37.24 32.5 72.72 67.6 104.45 105.5 30.76 36.8 56.21 84.6 81.58 125.9 80.88 131.5 95.88 317.5 37.46 460.7-100.42 246.3-407.73 235.8-622.81 172 126.24 87.5 288.93 95.3 437.25 135.1 231.23 62 438.55 210.7 569.37 411.2 65.87 101 112.97 229.6 66.25 340.7-41 97.5-145.38 155.3-249.42 174.1-144.94 26.2-293.95-9.2-433.12-57.4-247.98-85.9-495.46-226.9-613.31-461.4-16.03-31.9-30.4-66.4-58.15-88.9s-74.34-26.7-95.91 1.7c-23.71 31.3-3.02 75.9 19.73 107.9 158.86 223.3 407.01 368.4 664.04 463.4 228.05 84.3 482.38 133.8 713.07 57 115.59-38.4 228.89-119.6 254.69-238.6 24.9-114.5-37.6-230.3-114.6-318.5-167.71-192.1-405.29-305.9-636.37-414"
         id="path38118"
         style="stroke:#000000;stroke-opacity:1;stroke-width:34.38644636;stroke-miterlimit:4;stroke-dasharray:none" /><path
         d="m8268.9 2981.9c-19.4 3.4-43.33-10.2-59.99-24.5-106.44-91.3-193.53-202.1-274.59-315.8-78.24-109.7-166.52-220.1-227.08-340.6-40.74-81.2-88.08-159.1-126.36-241.3-41.01-88-75.42-179.2-111.41-269.5-10.05-25.2-15.51-52.3-23.08-78.5 32.03 28.3 50.7 41.4 68.54 61.4 256.77 287.2 536.77 562.2 715.82 908.3 41.87 80.9 78.72 170.2 66.79 260.6-1.48 11.2-4.07 23.1-12.01 31.2-4.84 4.9-10.51 7.7-16.63 8.7zm115.74 50.1c2.85-2.6 4.95-5.9 6.23-9.9 24.21-76.1-34.08-204-61.74-274.9-37.35-95.6-86.49-186.3-142.73-272.1-94.33-143.8-212.82-263.6-320.46-396.4-104-128.3-208.89-253.9-331.13-366.5-12.39-11.4-24.02-23.7-37.05-34.4-38.28-31.1-61.32-69.3-76.76-117.7-32.04-100.5-92.37-253.8-2.41-342.2 10.46-10.3 24.38-19.5 38.82-16.9 9.27 1.7 16.97 8 23.89 14.4 23.32 21.5 42.82 46.9 65.93 68.6 13.86 13.1 48.65 45.1 70.01 41.5 29.78-5-4.46-44.7-17.94-58.6-70.76-73.3-162.68-126-261.72-149.9-32.14-7.7-67.23-12.3-97.3 1.5-34.77 15.9-55.21 53.2-63.93 90.4-10.03 42.8-6.31 73.8 4.05 133-41.13-42.5-150.42-98.8-174.91-111-63.94-32-134.78-62.1-207.51-61.2-31.34 0.4-64.36 7.7-86.89 29.5-51.08 49.4-36.32 136.2-16.58 224.4-102.54-101.4-237.04-228.2-379.84-248.6-24.89-3.5-52.99-3.4-71.75 13.4-24.44 21.8-21.64 60.3-15.29 92.4 37.26 188.6 127.65 363.2 236.64 521.6 150.06 218.1 350.25 418.3 605.76 487.6 19.72 5.3 42.32 9.4 59.35-1.8 14.63-9.7 20.71-28.1 23.65-45.4 19.13-112.6-51.74-218.7-119.06-310.9-7.13-9.8-14.8-20-25.94-24.7-24.27-10.3-52.09 12.1-58.28 37.8-6.19 25.6 2.19 52.2 8.94 77.6 10.59 40 17.32 81 20.05 122.3 0.74 11.3 0.63 24.2-7.57 32-13.44 12.9-35.52 2.2-50.04-9.4-49.96-40.2-92.09-89.2-131.45-139.8-131.16-168.5-234.97-358.3-306.14-559.7-18.4-52-51.16-162.1-16.52-161.5 16.95 0.2 32.83 18.9 46.4 32.3 45.99 45.3 91.97 90.6 137.96 136 32.05 31.6 64.36 63.5 88.84 101.2 37.08 57.2 55 121 100.67 173.6 59.57 68.6 141.7 118 232.31 130-13.65-28.2-27.14-56.6-40.72-84.8-15.01-35.6-26.56-72.6-38.88-109.3-21.43-63.8-44.83-127.1-62.65-191.9-14.91-54.1-19.16-109.7 9.46-162.7 16.8-31.2 40.21-41.5 73.85-31.5 37.05 11 67.9 31.9 96.62 56.8 3.89 3.3 24.85 19.5 28.89 22.3 83.23 57.9 94.78 190.4 114.73 279.5 25.19 112.5 61.84 222.2 107.2 328 91.41 213.4 217.5 410.8 361.09 592.6 86.31 109.3 179.78 214.4 290.75 298.5 43.48 33 321.18 200.1 371.1 154.9"
         id="path38120"
         style="stroke:#000000;stroke-opacity:1;stroke-width:34.38644636;stroke-miterlimit:4;stroke-dasharray:none" /><path
         d="m227.63 2258.2c-12.914 40.8 1.422 94.7 23.738 135.1 91.563 165.5 258.36 276.1 430.3 355 171.23 78.5 356.4 132.6 544.78 133.4 172.61 0.7 341.83-43 511.89-72.6 170.05-29.5 348.84-44.5 512.09 11.5 163.92 56.3 296.59 178.7 453.88 251.6 16.98 7.8 66.18 17 59.99-14.4-3.2-16.2-30.66-30.5-42.29-39.5-18.71-14.5-37.64-28.7-56.81-42.5-77.78-56.3-159.64-107.1-246.1-149-121.14-58.6-251.77-99.3-385.84-111.1-55.9-4.9-113.56-4.8-164.08-31.3-45.06-23.7-89.11-49.2-130.66-78.7-82.9-58.9-152.38-132.8-209.05-217.1-263.26-391.4-338.56-858.6-564.46-1266.9-44.196-79.9-93.165-159.4-145.08-234.4-20.519-29.602-45.101-56.602-68.945-83.801-23.969-27.301-49.566-53.199-73.93-80.199-61.769-68.5-140.63-110.1-225.46-141.2-31.247-11.5-64.723-20.602-98.653-2.903-9.996 35.903 11.762 61.403 34.785 76.801 29.141 19.402 64.926 32.699 102.29 26.602 20.386-3.301 32.82 1.199 46.562 17.699 64.168 77.398 117.39 161.9 163.18 250.7 46.937 90.9 89.429 184.2 131.85 277.4 17.141 37.7 29.258 77.7 43.09 116.8 102.31 289.4 187.58 581.4 341.39 849.6 109.84 191.6 250.88 368.1 429.61 497.8-223.24 43.8-452.82 87.7-676.65 47-128.41-23.4-251.66-74.7-358.72-149.3-58.137-40.5-112.97-89.7-143.14-153.9-24.977-53.1-31.883-113.9-61.696-164.4-29.812-50.5-98.113-87.7-147.01-55.3-15.722 10.4-25.566 24.9-30.847 41.5"
         id="path38122"
         style="stroke:#000000;stroke-opacity:1;stroke-width:34.38644636;stroke-miterlimit:4;stroke-dasharray:none" /><path
         d="m2589.2 586.9c-15.95 1.297 22.43 37.2 23.28 37.899 19.51 15.601 50.86 24.398 73.05 36.699 45.23 24.898 88.66 53 130.15 83.801 83.19 61.601 158.46 133.7 225.39 212.6 371.84 438.5 463.93 1031.9 732.48 1527.7 27.09 50 55.88 99.1 86.72 146.9 46.61 72.3 100.71 137.4 154 204.7 2.31 2.9 3.59 6.6 6.8 12.7-40.26-7.9-80.36-19.9-120.99-25-44.87-5.7-90.29-3.6-135.34-1.8-62.89 2.6-127.27 4.5-187.25-14.6-59.97-19.1-115.68-63.6-130.66-124.7-4.18-17.1-5.29-35.4-14.28-50.6-11.79-19.8-34.64-30-56.58-37.3-21.55-7.1-43.64-12.5-66.02-16.2-17.83-3-40.88-2.2-47.97 14.5-3.42 8-1.64 17.2 0.71 25.7 20.61 73.8 80.41 122.6 142.06 163 66.29 43.4 140.47 74.9 217.89 91.9 120.93 26.6 245.55 19 368.4 23.2 126.69 4.3 233.6 46 355.07 69.6 10.09-22.1 7.67-32.8-11.62-41.4-147.25-65.5-247.79-248.2-318.15-385-79.94-155.3-138.53-320.4-202.31-482.7-120.92-307.7-265.02-609.3-465.33-872.4-99.27-130.4-212.55-250.6-339.77-354.1-63.33-51.5-130.1-98.801-200.1-140.8-53.01-31.898-157.77-109.2-219.63-104.3"
         id="path38124"
         style="stroke:#000000;stroke-opacity:1;stroke-width:34.38644636;stroke-miterlimit:4;stroke-dasharray:none" /><path
         d="m9918.2 10353c63.56-51.3 141.32-81.4 222.82-86.5 10.4-0.6 11.8 17.7 1.3 18.6-77.6 6.7-151.44 35-212.18 84-10.06 8.1-21.95-8-11.94-16.1"
         display="none"
         id="path38126"
         style="stroke:#000000;stroke-opacity:1;stroke-width:34.38644636;stroke-miterlimit:4;stroke-dasharray:none" /></g></g></svg>
